<?xml version="1.0" encoding="utf-8" ?>
<svg baseProfile="full" height="40" version="1.1" width="37" xmlns="http://www.w3.org/2000/svg" xmlns:ev="http://www.w3.org/2001/xml-events" xmlns:xlink="http://www.w3.org/1999/xlink"><defs><marker id="arrow" markerHeight="3.5" markerWidth="5" orient="auto" refX="5.0" refY="1.7"><polygon points="0,0 5,1.75 0,3.5" /></marker></defs><g style="fill:white; stroke: black; stroke-width: 0.01;" transform="scale(7.0) translate(2.625 0.7977539062500001)"><g><g><g style="stroke: #ffffff;"><g style="fill: #000000;"><g style=";" transform="scale(1)"><text style="text-align:center; dominant-baseline:middle;&#10;                      font-family:sans-serif; font-weight: bold;&#10;                      font-size:1px" transform="translate(-1.6298828125, 0)">matrix</text></g></g></g><g transform="translate(0 1.26416015625)"><g style="stroke-width: 0;"><g style=";" transform="scale(1)"><polyline points="0,-1.25 0,1.25" /></g></g></g></g><g transform="translate(0 3.51416015625)"><g transform="translate(-0.0 -0.0)"><g transform="translate(-2.5 -1.0)"><g><g><g><g><g><g /><g transform="translate(0.5 0)"><g><g><g /><g transform="translate(0 0.5)"><g><g style="stroke-width: 0.05;"><g style=";" transform="scale(1)"><rect height="1" width="1" x="-0.5" y="-0.5" /></g></g></g></g></g><g transform="translate(0 1.5)"><g><g style="stroke-width: 0.05;"><g style=";" transform="scale(1)"><rect height="1" width="1" x="-0.5" y="-0.5" /></g></g></g></g></g></g></g><g transform="translate(1.5 0)"><g><g><g /><g transform="translate(0 0.5)"><g><g style="stroke-width: 0.05;"><g style=";" transform="scale(1)"><rect height="1" width="1" x="-0.5" y="-0.5" /></g></g></g></g></g><g transform="translate(0 1.5)"><g><g style="stroke-width: 0.05;"><g style=";" transform="scale(1)"><rect height="1" width="1" x="-0.5" y="-0.5" /></g></g></g></g></g></g></g><g transform="translate(2.5 0)"><g><g><g /><g transform="translate(0 0.5)"><g><g style="stroke-width: 0.05;"><g style=";" transform="scale(1)"><rect height="1" width="1" x="-0.5" y="-0.5" /></g></g></g></g></g><g transform="translate(0 1.5)"><g><g style="stroke-width: 0.05;"><g style=";" transform="scale(1)"><rect height="1" width="1" x="-0.5" y="-0.5" /></g></g></g></g></g></g></g><g transform="translate(3.5 0)"><g><g><g /><g transform="translate(0 0.5)"><g><g style="stroke-width: 0.05;"><g style=";" transform="scale(1)"><rect height="1" width="1" x="-0.5" y="-0.5" /></g></g></g></g></g><g transform="translate(0 1.5)"><g><g style="stroke-width: 0.05;"><g style=";" transform="scale(1)"><rect height="1" width="1" x="-0.5" y="-0.5" /></g></g></g></g></g></g></g><g transform="translate(4.5 0)"><g><g><g /><g transform="translate(0 0.5)"><g><g style="stroke-width: 0.05;"><g style=";" transform="scale(1)"><rect height="1" width="1" x="-0.5" y="-0.5" /></g></g></g></g></g><g transform="translate(0 1.5)"><g><g style="stroke-width: 0.05;"><g style=";" transform="scale(1)"><rect height="1" width="1" x="-0.5" y="-0.5" /></g></g></g></g></g></g></g></g></g></g></g></g></svg>