<?xml version="1.0" encoding="utf-8" ?>
<svg baseProfile="full" height="200" version="1.1" width="158" xmlns="http://www.w3.org/2000/svg" xmlns:ev="http://www.w3.org/2001/xml-events" xmlns:xlink="http://www.w3.org/1999/xlink"><defs><marker id="arrow" markerHeight="3.5" markerWidth="5" orient="auto" refX="5.0" refY="1.7"><polygon points="0,0 5,1.75 0,3.5" /></marker></defs><g style="fill:white; stroke: black; stroke-width: 0.01;" transform="scale(15.0) translate(5.25 0.737255859375)"><g><g><g><g><g><g><g style="stroke: #ffffff;"><g style="fill: #000000;"><g style=";" transform="scale(1)"><text style="text-align:center; dominant-baseline:middle;&#10;                      font-family:sans-serif; font-weight: bold;&#10;                      font-size:1px" transform="translate(-1.592529296875, 0)">tensor</text></g></g></g><g transform="translate(0 1.26416015625)"><g style="stroke-width: 0;"><g style=";" transform="scale(1)"><polyline points="0,-1.25 0,1.25" /></g></g></g></g><g transform="translate(0 5.01416015625)"><g transform="translate(-1.0 -2.5)"><g><g><g /><g transform="translate(0.5 0)"><g><g><g><g><g><g /><g transform="translate(0 0.5)"><g><g style="stroke-width: 0.05;"><g style=";" transform="scale(1)"><rect height="1" width="1" x="-0.5" y="-0.5" /></g></g></g></g></g><g transform="translate(0 1.5)"><g><g style="stroke-width: 0.05;"><g style=";" transform="scale(1)"><rect height="1" width="1" x="-0.5" y="-0.5" /></g></g></g></g></g><g transform="translate(0 2.5)"><g><g style="stroke-width: 0.05;"><g style=";" transform="scale(1)"><rect height="1" width="1" x="-0.5" y="-0.5" /></g></g></g></g></g><g transform="translate(0 3.5)"><g><g style="stroke-width: 0.05;"><g style=";" transform="scale(1)"><rect height="1" width="1" x="-0.5" y="-0.5" /></g></g></g></g></g><g transform="translate(0 4.5)"><g><g style="stroke-width: 0.05;"><g style=";" transform="scale(1)"><rect height="1" width="1" x="-0.5" y="-0.5" /></g></g></g></g></g></g></g><g transform="translate(1.5 0)"><g><g><g><g><g><g /><g transform="translate(0 0.5)"><g><g style="stroke-width: 0.05;"><g style=";" transform="scale(1)"><rect height="1" width="1" x="-0.5" y="-0.5" /></g></g></g></g></g><g transform="translate(0 1.5)"><g><g style="stroke-width: 0.05;"><g style=";" transform="scale(1)"><rect height="1" width="1" x="-0.5" y="-0.5" /></g></g></g></g></g><g transform="translate(0 2.5)"><g><g style="stroke-width: 0.05;"><g style=";" transform="scale(1)"><rect height="1" width="1" x="-0.5" y="-0.5" /></g></g></g></g></g><g transform="translate(0 3.5)"><g><g style="stroke-width: 0.05;"><g style=";" transform="scale(1)"><rect height="1" width="1" x="-0.5" y="-0.5" /></g></g></g></g></g><g transform="translate(0 4.5)"><g><g style="stroke-width: 0.05;"><g style=";" transform="scale(1)"><rect height="1" width="1" x="-0.5" y="-0.5" /></g></g></g></g></g></g></g></g></g></g><g transform="translate(0 8.76416015625)"><g style="stroke-width: 0;"><g style=";" transform="scale(1)"><polyline points="0,-1.25 0,1.25" /></g></g></g></g><g transform="translate(0 10.51416015625)"><g style="fill: #ff9700;"><g transform="translate(-5.0 -0.5)"><g><g><g><g><g><g><g><g><g><g><g /><g transform="translate(0.5 0)"><g><g /><g transform="translate(0 0.5)"><g><g style="stroke-width: 0.05;"><g style=";" transform="scale(1)"><rect height="1" width="1" x="-0.5" y="-0.5" /></g></g></g></g></g></g></g><g transform="translate(1.5 0)"><g><g /><g transform="translate(0 0.5)"><g><g style="stroke-width: 0.05;"><g style=";" transform="scale(1)"><rect height="1" width="1" x="-0.5" y="-0.5" /></g></g></g></g></g></g></g><g transform="translate(2.5 0)"><g><g /><g transform="translate(0 0.5)"><g><g style="stroke-width: 0.05;"><g style=";" transform="scale(1)"><rect height="1" width="1" x="-0.5" y="-0.5" /></g></g></g></g></g></g></g><g transform="translate(3.5 0)"><g><g /><g transform="translate(0 0.5)"><g><g style="stroke-width: 0.05;"><g style=";" transform="scale(1)"><rect height="1" width="1" x="-0.5" y="-0.5" /></g></g></g></g></g></g></g><g transform="translate(4.5 0)"><g><g /><g transform="translate(0 0.5)"><g><g style="stroke-width: 0.05;"><g style=";" transform="scale(1)"><rect height="1" width="1" x="-0.5" y="-0.5" /></g></g></g></g></g></g></g><g transform="translate(5.5 0)"><g><g /><g transform="translate(0 0.5)"><g><g style="stroke-width: 0.05;"><g style=";" transform="scale(1)"><rect height="1" width="1" x="-0.5" y="-0.5" /></g></g></g></g></g></g></g><g transform="translate(6.5 0)"><g><g /><g transform="translate(0 0.5)"><g><g style="stroke-width: 0.05;"><g style=";" transform="scale(1)"><rect height="1" width="1" x="-0.5" y="-0.5" /></g></g></g></g></g></g></g><g transform="translate(7.5 0)"><g><g /><g transform="translate(0 0.5)"><g><g style="stroke-width: 0.05;"><g style=";" transform="scale(1)"><rect height="1" width="1" x="-0.5" y="-0.5" /></g></g></g></g></g></g></g><g transform="translate(8.5 0)"><g><g /><g transform="translate(0 0.5)"><g><g style="stroke-width: 0.05;"><g style=";" transform="scale(1)"><rect height="1" width="1" x="-0.5" y="-0.5" /></g></g></g></g></g></g></g><g transform="translate(9.5 0)"><g><g /><g transform="translate(0 0.5)"><g><g style="stroke-width: 0.05;"><g style=";" transform="scale(1)"><rect height="1" width="1" x="-0.5" y="-0.5" /></g></g></g></g></g></g></g></g></g></g></g><g transform="translate(0 11.71630859375)"><g style="stroke: #ffffff;"><g style="fill: #000000;"><g style=";" transform="scale(1)"><text style="text-align:center; dominant-baseline:middle;&#10;                      font-family:sans-serif; font-weight: bold;&#10;                      font-size:1px" transform="translate(-1.8994140625, 0)">storage</text></g></g></g></g></g><g style="stroke-width: 0.1;"><g style="stroke-dasharray: 0.1 0.1;"><g><g><g><g><g /><g style=";" transform="scale(1)"><polyline points="-0.5,3.01416015625 -4.5,10.51416015625" /></g></g><g style=";" transform="scale(1)"><polyline points="-0.5,4.01416015625 -3.5,10.51416015625" /></g></g><g style=";" transform="scale(1)"><polyline points="0.5,3.01416015625 -2.5,10.51416015625" /></g></g><g style=";" transform="scale(1)"><polyline points="0.5,7.01416015625 4.5,10.51416015625" /></g></g></g></g></g></g></svg>