<?xml version="1.0" encoding="utf-8" ?>
<svg baseProfile="full" height="200" version="1.1" width="566" xmlns="http://www.w3.org/2000/svg" xmlns:ev="http://www.w3.org/2001/xml-events" xmlns:xlink="http://www.w3.org/1999/xlink"><defs><marker id="arrow" markerHeight="3.5" markerWidth="5" orient="auto" refX="5.0" refY="1.7"><polygon points="0,0 5,1.75 0,3.5" /></marker></defs><g style="fill:white; stroke: black; stroke-width: 0.01;" transform="scale(63.0) translate(0.525 1.5750000000000002)"><g><g><g><g><g><g><g><g><g><g><g transform="translate(-0.0 -0.4)"><g><g><g transform="translate(-0.5 -0.0)"><g style="stroke-width: 0.03;"><g style=";" transform="scale(1)"><polyline marker-end="url(#arrow)" points="0,0 1,0" /></g></g></g><g transform="translate(0 0.4)"><g style="stroke-width: 0;"><g style=";" transform="scale(1)"><polyline points="0,-0.4 0,0.4" /></g></g></g></g><g transform="translate(0 0.8)"><g transform="translate(-0.5 -0.0)"><g style="stroke-width: 0.03;"><g style=";" transform="scale(1)"><polyline marker-end="url(#arrow)" points="0,0 1,0" /></g></g></g></g></g></g><g transform="translate(1.25 0)"><g><g style="fill: #bbbbbb;"><g style="stroke-width: 0.05;"><g style=";" transform="scale(1)"><rect height="1" width="1.5" x="-0.75" y="-0.5" /></g></g></g></g></g></g><g transform="translate(2.5 0)"><g style="stroke-width: 0;"><g style=";" transform="scale(1)"><polyline points="-0.5,0 0.5,0" /></g></g></g></g><g transform="translate(3.75 0)"><g transform="translate(-0.0 -1.0)"><g><g><g><g style="fill: #bbbbbb;"><g style="stroke-width: 0.05;"><g style=";" transform="scale(1)"><rect height="1" width="1.5" x="-0.75" y="-0.5" /></g></g></g></g><g transform="translate(0 1.0)"><g style="stroke-width: 0;"><g style=";" transform="scale(1)"><polyline points="0,-0.5 0,0.5" /></g></g></g></g><g transform="translate(0 2.0)"><g><g style="fill: #bbbbbb;"><g style="stroke-width: 0.05;"><g style=";" transform="scale(1)"><rect height="1" width="1.5" x="-0.75" y="-0.5" /></g></g></g></g></g></g></g></g></g><g transform="translate(5.0 0)"><g style="stroke-width: 0;"><g style=";" transform="scale(1)"><polyline points="-0.5,0 0.5,0" /></g></g></g></g><g transform="translate(6.25 0)"><g><g style="fill: #bbbbbb;"><g style="stroke-width: 0.05;"><g style=";" transform="scale(1)"><rect height="1" width="1.5" x="-0.75" y="-0.5" /></g></g></g></g></g></g><g transform="translate(7.5 0)"><g transform="translate(-0.5 -0.0)"><g style="stroke-width: 0.03;"><g style=";" transform="scale(1)"><polyline marker-end="url(#arrow)" points="0,0 1,0" /></g></g></g></g></g><g style="stroke-width: 0.03;"><g style=";" transform="scale(1)"><polyline points="2.0,0.0 3.0,-1.0" /></g></g></g><g style="stroke-width: 0.03;"><g style=";" transform="scale(1)"><polyline points="2.0,0.0 3.0,1.0" /></g></g></g><g style="stroke-width: 0.03;"><g style=";" transform="scale(1)"><polyline points="4.5,-1.0 5.5,0.0" /></g></g></g><g style="stroke-width: 0.03;"><g style=";" transform="scale(1)"><polyline points="4.5,1.0 5.5,0.0" /></g></g></g></g></svg>