<?xml version="1.0" encoding="utf-8" ?>
<svg baseProfile="full" height="200" version="1.1" width="455" xmlns="http://www.w3.org/2000/svg" xmlns:ev="http://www.w3.org/2001/xml-events" xmlns:xlink="http://www.w3.org/1999/xlink"><defs><marker id="arrow" markerHeight="3.5" markerWidth="5" orient="auto" refX="5.0" refY="1.7"><polygon points="0,0 5,1.75 0,3.5" /></marker></defs><g style="fill:white; stroke: black; stroke-width: 0.01;" transform="scale(47.0) translate(0.525 2.1)"><g><g><g><g><g transform="translate(-0.0 0.4000000000000001)"><g transform="scale(1 -1)"><g transform="scale(-1 1)"><g><g><g><g transform="translate(0 -0.2)"><g><g><g style="stroke: #ffffff;"><g style="fill: #000000;"><g style=";" transform="scale(1)"><text style="text-align:center; dominant-baseline:middle;&#10;                      font-family:sans-serif; font-weight: bold;&#10;                      font-size:0.3px" transform="translate(-0.0, 0)" /></g></g></g><g /></g><g /></g></g><g transform="translate(-0.5 -0.0)"><g style="stroke-width: 0.03;"><g style=";" transform="scale(1)"><polyline marker-end="url(#arrow)" points="0,0 1,0" /></g></g></g></g><g transform="translate(0 0.2)"><g><g><g style="stroke: #ffffff;"><g style="fill: #000000;"><g style=";" transform="scale(1)"><text style="text-align:center; dominant-baseline:middle;&#10;                      font-family:sans-serif; font-weight: bold;&#10;                      font-size:0.3px" transform="translate(-0.0, 0)" /></g></g></g><g /></g><g /></g></g></g><g transform="translate(0 0.8)"><g><g><g transform="translate(0 -0.2)"><g><g><g style="stroke: #ffffff;"><g style="fill: #000000;"><g style=";" transform="scale(1)"><text style="text-align:center; dominant-baseline:middle;&#10;                      font-family:sans-serif; font-weight: bold;&#10;                      font-size:0.3px" transform="translate(-0.0, 0)" /></g></g></g><g /></g><g /></g></g><g transform="translate(-0.5 -0.0)"><g style="stroke-width: 0.03;"><g style=";" transform="scale(1)"><polyline marker-end="url(#arrow)" points="0,0 1,0" /></g></g></g></g><g transform="translate(0 0.2)"><g><g><g style="stroke: #ffffff;"><g style="fill: #000000;"><g style=";" transform="scale(1)"><text style="text-align:center; dominant-baseline:middle;&#10;                      font-family:sans-serif; font-weight: bold;&#10;                      font-size:0.3px" transform="translate(-0.0, 0)" /></g></g></g><g /></g><g /></g></g></g></g></g></g></g></g><g transform="translate(1.35 0)"><g transform="translate(-0.0 -0.0)"><g><g><g><g><g style="fill: #bbbbbb;"><g style="stroke-width: 0.05;"><g style=";" transform="scale(1)"><rect height="1" width="1.5" x="-0.75" y="-0.5" /></g></g></g><g /></g><g /></g><g /></g><g /></g></g></g></g><g transform="translate(4.050000000000001 0)"><g transform="translate(-1.35 -1.0)"><g><g><g><g style="stroke: #ff9700;"><g transform="scale(1 -1)"><g transform="scale(-1 1)"><g transform="translate(-0.5 0.25)"><g style="stroke-width: 0.03;"><g style=";" transform="scale(1)"><polyline marker-end="url(#arrow)" points="0,0 1,-0.5" /></g></g></g></g></g></g><g transform="translate(1.35 0)"><g transform="translate(-0.0 -0.0)"><g><g><g><g><g style="fill: #bbbbbb;"><g style="stroke-width: 0.05;"><g style=";" transform="scale(1)"><rect height="1" width="1.5" x="-0.75" y="-0.5" /></g></g></g><g /></g><g /></g><g /></g><g /></g></g></g></g><g transform="translate(2.7 0)"><g style="stroke: #ff9700;"><g transform="scale(1 -1)"><g transform="scale(-1 1)"><g transform="scale(1 -1)"><g transform="translate(-0.5 0.25)"><g style="stroke-width: 0.03;"><g style=";" transform="scale(1)"><polyline marker-end="url(#arrow)" points="0,0 1,-0.5" /></g></g></g></g></g></g></g></g></g><g transform="translate(0 2.0)"><g><g><g style="stroke: #ff9700;"><g transform="scale(1 -1)"><g transform="scale(-1 1)"><g transform="scale(1 -1)"><g transform="translate(-0.5 0.25)"><g style="stroke-width: 0.03;"><g style=";" transform="scale(1)"><polyline marker-end="url(#arrow)" points="0,0 1,-0.5" /></g></g></g></g></g></g></g><g transform="translate(1.35 0)"><g transform="translate(-0.0 -0.0)"><g><g><g><g><g style="fill: #bbbbbb;"><g style="stroke-width: 0.05;"><g style=";" transform="scale(1)"><rect height="1" width="1.5" x="-0.75" y="-0.5" /></g></g></g><g /></g><g /></g><g /></g><g /></g></g></g></g><g transform="translate(2.7 0)"><g style="stroke: #ff9700;"><g transform="scale(1 -1)"><g transform="scale(-1 1)"><g transform="translate(-0.5 0.25)"><g style="stroke-width: 0.03;"><g style=";" transform="scale(1)"><polyline marker-end="url(#arrow)" points="0,0 1,-0.5" /></g></g></g></g></g></g></g></g></g></g></g></g></g><g transform="translate(6.75 0)"><g transform="translate(-0.0 -0.0)"><g><g><g><g><g style="fill: #bbbbbb;"><g style="stroke-width: 0.05;"><g style=";" transform="scale(1)"><rect height="1" width="1.5" x="-0.75" y="-0.5" /></g></g></g><g /></g><g /></g><g /></g><g /></g></g></g></g><g transform="translate(8.1 0)"><g style="stroke: #ff9700;"><g transform="scale(1 -1)"><g transform="scale(-1 1)"><g transform="translate(-0.5 -0.0)"><g style="stroke-width: 0.03;"><g style=";" transform="scale(1)"><polyline marker-end="url(#arrow)" points="0,0 1,0" /></g></g></g></g></g></g></g></g></g></svg>